<svg width="152" height="34" viewBox="0 0 152 34" fill="none" xmlns="http://www.w3.org/2000/svg" aria-label="Benchling Logo"><path d="M117.578 12.1464V25.822C117.882 26.0033 118.389 26.081 119.174 26.081C119.984 26.081 120.491 26.0033 120.795 25.822V12.1464C120.491 11.9651 119.984 11.8874 119.174 11.8874C118.389 11.8874 117.882 11.9651 117.578 12.1464ZM56.1043 13.9853C58.4346 13.9853 58.9918 15.7984 58.7892 17.5078H52.6342C52.7608 15.384 54.0273 13.9853 56.1043 13.9853ZM49.3161 19.1396C49.3161 23.6981 51.8743 26.5731 56.5602 26.5731C58.4599 26.5731 59.9796 26.081 60.8662 25.5371C61.3981 24.9672 61.7527 23.6981 61.6767 22.7916C60.6382 23.3355 59.1185 23.8017 57.3201 23.8017C54.4326 23.8017 52.7608 22.6362 52.6089 20.0461H61.55C61.8033 19.2691 61.9047 18.3884 61.9047 17.4819C61.9047 13.9076 60.081 11.3952 56.2056 11.3952C51.9503 11.3952 49.3161 14.5292 49.3161 19.1396ZM67.781 13.9594H67.6037L67.4011 11.732C66.3372 11.732 65.4001 11.9133 64.7922 12.25V25.8479C65.0961 26.0292 65.6027 26.1069 66.3879 26.1069C67.1984 26.1069 67.705 26.0292 68.009 25.8479V16.3682C68.5409 15.3581 69.554 14.4515 71.3018 14.4515C73.3027 14.4515 73.8853 15.6171 73.8853 17.5078V25.8479C74.1893 26.0292 74.6959 26.1069 75.4811 26.1069C76.2916 26.1069 76.7982 26.0292 77.1021 25.8479V16.8862C77.1021 12.2241 74.5945 11.447 72.4416 11.447C69.858 11.3952 68.4142 12.5349 67.781 13.9594ZM79.6857 19.1396C79.6857 23.7499 82.0666 26.5731 86.4232 26.5731C88.019 26.5731 89.3107 26.2105 90.1973 25.7184C90.7798 25.0708 91.1851 23.5945 91.0585 22.6621C90.02 23.2319 88.8548 23.6204 87.4364 23.6204C84.7262 23.6204 82.9531 22.17 82.9531 18.9583C82.9531 15.7466 84.7009 14.3479 87.4111 14.3479C88.7282 14.3479 89.716 14.6587 90.7545 15.3063C90.9318 14.322 90.6785 12.9234 90.1973 12.2759C89.4121 11.7579 88.1709 11.4729 86.7778 11.4729C82.7505 11.3952 79.6857 13.8299 79.6857 19.1396ZM127.203 13.9594H127.026L126.823 11.732C125.759 11.732 124.822 11.9133 124.214 12.25V25.8479C124.518 26.0292 125.025 26.1069 125.81 26.1069C126.621 26.1069 127.127 26.0292 127.431 25.8479V16.3682C127.963 15.3581 128.976 14.4515 130.699 14.4515C132.7 14.4515 133.282 15.6171 133.282 17.5078V25.8479C133.586 26.0292 134.093 26.1069 134.878 26.1069C135.688 26.1069 136.195 26.0292 136.499 25.8479V16.8862C136.499 12.2241 134.017 11.447 131.838 11.447C129.28 11.3952 127.862 12.5349 127.203 13.9594ZM142.451 18.8288C142.451 16.0315 143.768 14.1148 146.732 14.1148C147.618 14.1148 148.252 14.2961 148.784 14.5551V21.3152C148.226 22.2218 147.314 22.9729 145.82 22.9729C143.692 22.9729 142.451 21.5483 142.451 18.8288ZM139.158 19.1655C139.158 23.7758 141.514 25.9256 144.782 25.9256C146.833 25.9256 148.15 25.0967 148.885 23.8276H149.062C148.885 24.501 148.758 25.6666 148.758 26.5213C148.758 29.0596 147.821 30.3805 145.06 30.3805C143.566 30.3805 141.742 29.9402 139.994 28.9559C139.69 29.9402 139.817 31.4165 140.425 32.323C141.843 33.0224 143.794 33.3591 145.44 33.3591C150.709 33.3591 152 30.1733 152 25.8997V12.8457C150.481 11.8615 148.859 11.3693 146.808 11.3693C142.021 11.3952 139.158 14.063 139.158 19.1655ZM35.6384 23.1024V17.0934H39.0071C41.9453 17.0934 43.769 18.0776 43.769 20.2015C43.769 22.3513 41.92 23.2578 38.8045 23.2578C37.6394 23.2319 36.4742 23.1801 35.6384 23.1024ZM35.6384 8.67566C36.3729 8.52026 37.1834 8.46846 38.1966 8.46846C41.0081 8.46846 42.7558 9.32318 42.7558 11.3693C42.7558 13.2342 41.2868 14.1407 38.9818 14.1407H35.6384V8.67566ZM32.2949 6.08559V25.8997C34.0933 26.1069 36.5502 26.1846 38.9058 26.1846C43.5917 26.1846 47.2138 24.5528 47.2138 20.2533C47.2138 17.456 45.6434 16.0574 43.2878 15.4358V15.2545C45.0355 14.7623 46.1753 13.1824 46.1753 10.929C46.1753 7.01801 42.8065 5.54167 38.1206 5.54167C35.917 5.54167 34.0173 5.77478 32.2949 6.08559ZM117.173 7.22522C117.173 8.52026 117.907 9.27138 119.174 9.27138C120.39 9.27138 121.2 8.54616 121.2 7.19932C121.2 5.85248 120.415 5.10136 119.199 5.10136C117.983 5.10136 117.173 5.85248 117.173 7.22522ZM93.5914 5.46397V25.822C93.8953 26.0033 94.4019 26.081 95.1871 26.081C95.9976 26.081 96.5042 26.0033 96.8082 25.822V16.3423C97.3654 15.3063 98.3786 14.4256 100.177 14.4256C102.203 14.4256 102.811 15.5653 102.811 17.4819V25.822C103.115 26.0033 103.622 26.081 104.407 26.081C105.217 26.081 105.724 26.0033 106.028 25.822V16.8603C106.028 12.1982 103.47 11.4211 101.266 11.4211C98.5812 11.4211 97.2894 12.5608 96.6562 13.8817H96.5042C96.7068 12.768 96.8082 11.4988 96.8082 9.9189V4.79055C95.3137 4.76465 94.3259 4.99776 93.5914 5.46397ZM109.371 5.46397V22.688C109.371 25.0967 110.258 26.5472 112.588 26.5472C113.525 26.5472 114.311 26.3141 114.842 25.9774C115.349 25.3816 115.678 24.0607 115.526 23.0506C115.045 23.3873 114.437 23.5945 113.779 23.5945C113.044 23.5945 112.614 23.3614 112.614 22.1959V4.76465C111.094 4.76465 110.106 4.99776 109.371 5.46397Z" fill="#000DB5"></path><path d="M8.6119 26.3919C8.20663 26.7545 7.92801 27.143 7.80137 27.6093H12.4619C12.3099 27.1689 12.0567 26.7545 11.6514 26.3919H8.6119ZM12.9432 24.0609C12.5379 24.3199 12.082 24.553 11.6007 24.7602L11.4994 24.812L11.6007 24.8638C13.0192 25.7444 13.7284 26.884 13.7284 28.3863C13.7284 28.8007 14.0577 29.1374 14.4629 29.1374C14.8682 29.1374 15.1975 28.8007 15.1975 28.3863C15.1975 26.625 14.4629 25.1487 13.0192 24.035L12.9938 24.0091L12.9432 24.0609ZM7.77604 19.2692C7.92801 19.7354 8.1813 20.1239 8.58657 20.4866H11.6007C12.006 20.1239 12.2593 19.7354 12.4113 19.2692H7.77604ZM8.6119 16.3165C8.20663 16.6791 7.92801 17.0677 7.80137 17.5339H12.4619C12.3099 17.0936 12.0567 16.6791 11.6514 16.3165H8.6119ZM5.09115 8.20959C5.09115 7.71748 5.47109 7.32897 5.95234 7.32897C6.43359 7.32897 6.81353 7.71748 6.81353 8.20959C6.81353 8.7017 6.43359 9.09022 5.95234 9.09022C5.47109 9.09022 5.09115 8.6758 5.09115 8.20959ZM13.3991 8.20959C13.3991 7.71748 13.779 7.32897 14.2603 7.32897C14.7415 7.32897 15.1215 7.71748 15.1215 8.20959C15.1215 8.7017 14.7415 9.09022 14.2603 9.09022C13.779 9.09022 13.3991 8.6758 13.3991 8.20959ZM1.84903 7.76928C1.77304 8.10599 1.69705 8.4168 1.62106 8.5722C1.06382 10.0485 0.329279 10.722 0.329279 10.7479C0.151975 10.8515 0.0253291 11.0587 0 11.2659V11.4472C0 11.4731 0 11.499 0 11.5249C0.0759873 11.8098 0.303948 12.0429 0.607897 12.0688C4.48325 12.4314 6.66156 13.0012 8.10531 13.4156C6.07899 14.5812 5.04049 16.2388 5.04049 18.3627C5.04049 20.5384 6.12964 22.2219 8.25729 23.3874C6.12964 24.553 5.04049 26.2624 5.04049 28.4122C5.04049 28.8266 5.36977 29.1633 5.77504 29.1633C6.1803 29.1633 6.50958 28.8266 6.50958 28.4122C6.50958 25.848 8.56124 24.7602 10.1063 24.1645C10.1823 24.1386 10.2583 24.1127 10.3343 24.0868C10.8662 23.8795 11.3728 23.6723 11.8287 23.4392C14.0323 22.2737 15.1468 20.5642 15.1468 18.3368C15.1468 16.705 14.5136 15.3064 13.2725 14.2186L13.2471 14.1927H13.2218C12.6139 14.3481 12.0567 14.5035 11.5754 14.6589L11.4488 14.7107L11.5754 14.7884C12.9938 15.669 13.6777 16.8086 13.6777 18.3109C13.6777 20.8751 11.6261 21.9629 10.081 22.5327C8.53591 21.937 6.48425 20.8751 6.48425 18.3109C6.48425 15.7467 8.53591 14.6589 10.081 14.0632L10.1823 14.0373C10.5369 13.8819 11.0435 13.6746 11.9553 13.4156C13.4244 12.9753 15.6027 12.4055 19.6047 12.017C19.9087 11.9911 20.1366 11.7839 20.2126 11.4731C20.2886 11.1882 20.162 10.8774 19.9087 10.722C19.9087 10.722 19.1741 10.0226 18.6169 8.5463C18.5409 8.365 18.4902 8.08009 18.3889 7.74338C17.857 5.59361 16.5906 0.542969 10.1316 0.542969C3.64739 0.56887 2.38094 5.61952 1.84903 7.76928Z" fill="#000DB5"></path></svg>